<svg xmlns="http://www.w3.org/2000/svg" width="318.344" height="95.969" viewBox="0 0 318.344 95.969">
  <g id="Group_2" data-name="Group 2" transform="translate(-3036 -332)">
    <g id="discogs_logo_white" data-name="discogs logo white" transform="translate(3036 332)">
      <path id="Path_2" data-name="Path 2" d="M276.966,32.233a.3.3,0,0,1-.166-.033A.362.362,0,0,0,276.966,32.233Z" transform="translate(-184.695 -21.485)" fill="#fff"/>
      <path id="Path_3" data-name="Path 3" d="M9.084,0H0V45.487H10.681c5.59,0,9.483-1.664,11.713-4.958s3.327-9.317,3.327-18q0-12.827-3.327-17.669C20.165,1.63,15.739,0,9.084,0Zm5.989,38.266c-.8,1.531-2.229,2.263-4.292,2.263H9.151V4.991h1.63c2.1,0,3.527,1.3,4.326,3.86s1.2,7.287,1.2,14.142C16.271,31.644,15.872,36.736,15.074,38.266Z" transform="translate(0 0)" fill="#fff"/>
      <rect id="Rectangle_9" data-name="Rectangle 9" width="8.585" height="7.953" transform="translate(27.485 0.033)" fill="#fff"/>
      <rect id="Rectangle_10" data-name="Rectangle 10" width="8.585" height="34.839" transform="translate(27.485 10.648)" fill="#fff"/>
      <path id="Path_4" data-name="Path 4" d="M124.943,46.239a29.5,29.5,0,0,1-4.891-4.925,5.3,5.3,0,0,1-.8-2.762,2.358,2.358,0,0,1,.7-1.83,2.416,2.416,0,0,1,1.73-.632,2.265,2.265,0,0,1,1.93.965,4.214,4.214,0,0,1,.7,2.529h6.855a8.813,8.813,0,0,0-2.462-6.655c-1.63-1.564-3.993-2.329-7.088-2.329a10.437,10.437,0,0,0-6.988,2.263,7.7,7.7,0,0,0-2.662,6.123,16.008,16.008,0,0,0,1.065,6.189c.7,1.664,2.363,3.627,4.991,5.923a58.3,58.3,0,0,1,4.459,4.126,4.177,4.177,0,0,1,1.364,2.7,2.857,2.857,0,0,1-.632,2.03,2.956,2.956,0,0,1-3.96-.2,4.369,4.369,0,0,1-.7-2.762H111.6c0,3.061.832,5.391,2.5,6.921s4.126,2.3,7.42,2.3a10.212,10.212,0,0,0,7.221-2.462,8.9,8.9,0,0,0,2.629-6.888,9.75,9.75,0,0,0-1.4-5.158A25.924,25.924,0,0,0,124.943,46.239Z" transform="translate(-74.465 -20.418)" fill="#fff"/>
      <path id="Path_5" data-name="Path 5" d="M415.768,51.8a25.7,25.7,0,0,0-4.991-5.457,29.5,29.5,0,0,1-4.891-4.925,5.3,5.3,0,0,1-.8-2.762,2.358,2.358,0,0,1,.7-1.83,2.416,2.416,0,0,1,1.73-.632,2.265,2.265,0,0,1,1.93.965,4.214,4.214,0,0,1,.7,2.529H417a8.813,8.813,0,0,0-2.462-6.655c-1.63-1.564-3.993-2.329-7.088-2.329a10.437,10.437,0,0,0-6.988,2.263,7.7,7.7,0,0,0-2.662,6.123,16.008,16.008,0,0,0,1.065,6.189c.7,1.664,2.363,3.627,4.991,5.923a58.293,58.293,0,0,1,4.459,4.126,4.177,4.177,0,0,1,1.364,2.7,2.721,2.721,0,0,1-.666,2.03,2.956,2.956,0,0,1-3.96-.2,4.369,4.369,0,0,1-.7-2.762H397.4c0,3.061.832,5.391,2.5,6.921s4.126,2.3,7.42,2.3a10.212,10.212,0,0,0,7.221-2.462,8.9,8.9,0,0,0,2.629-6.888A10.3,10.3,0,0,0,415.768,51.8Z" transform="translate(-265.165 -20.485)" fill="#fff"/>
      <path id="Path_6" data-name="Path 6" d="M262,76.124A5.127,5.127,0,0,1,267.124,71h0a5.127,5.127,0,0,1,5.124,5.124h0a5.127,5.127,0,0,1-5.124,5.124h0A5.127,5.127,0,0,1,262,76.124Zm.233,0a4.9,4.9,0,0,0,4.891,4.891h0a4.9,4.9,0,0,0,4.891-4.891h0a4.9,4.9,0,0,0-4.891-4.891h0a4.878,4.878,0,0,0-4.891,4.891Z" transform="translate(-174.82 -47.375)" fill="#fff"/>
      <path id="Path_7" data-name="Path 7" d="M276.6,84.8a.8.8,0,1,1-.8-.8A.81.81,0,0,1,276.6,84.8Z" transform="translate(-183.494 -56.049)" fill="#fff"/>
      <path id="Path_8" data-name="Path 8" d="M190.036,57.253h-3.228a6.126,6.126,0,0,1-.732,2.928,2.008,2.008,0,0,1-1.7.665c-1.231,0-2.03-.732-2.363-2.163-.366-1.431-.532-4.858-.532-10.282a68.6,68.6,0,0,1,.466-9.716c.3-1.8,1.1-2.7,2.329-2.7a1.588,1.588,0,0,1,1.564.932,11.592,11.592,0,0,1,.466,4.126h3.76a18.933,18.933,0,0,1,3.161-4.725A8.109,8.109,0,0,0,191.4,33.2c-1.664-1.73-4.06-2.6-7.154-2.6a9.72,9.72,0,0,0-8.751,4.492c-1.93,2.995-2.895,7.42-2.895,13.31,0,5.923.932,10.382,2.8,13.343a9.069,9.069,0,0,0,8.219,4.492q4.792,0,7.187-2.2a6.589,6.589,0,0,0,1.764-2.762A21.012,21.012,0,0,1,190.036,57.253Z" transform="translate(-115.167 -20.418)" fill="#fff"/>
      <path id="Path_9" data-name="Path 9" d="M329.228,49.2a18.782,18.782,0,0,1-2.429,9.317,10.52,10.52,0,0,0,2.3,4.525,7.586,7.586,0,0,0,5.69,2.1,11.61,11.61,0,0,0,3.76-.566,3.938,3.938,0,0,0,2.163-1.464c.033.333.067.665.067.932a6.152,6.152,0,0,1,.033.765,6,6,0,0,1-1.231,4.126,4.87,4.87,0,0,1-3.827,1.431,19.84,19.84,0,0,1-3.76-.4A15.251,15.251,0,0,1,328.629,69l-1.065,4.758a18.292,18.292,0,0,0,4.326,1.331,25.383,25.383,0,0,0,4.692.433c3.727,0,6.655-.932,8.851-2.8a9.858,9.858,0,0,0,3.261-7.886V31.066h-8.552V31.9a8.6,8.6,0,0,0-2.3-1,10.755,10.755,0,0,0-2.7-.3,7.573,7.573,0,0,0-5.291,1.93,10.846,10.846,0,0,0-3.128,5.357c-.1.4-.233.865-.333,1.431a18.919,18.919,0,0,1,2.828,9.883m10.981,10.249a3.73,3.73,0,0,1-1.1.632,4.435,4.435,0,0,1-1.464.2,2.358,2.358,0,0,1-1.83-.7,3.877,3.877,0,0,1-.8-2.3c-.1-1.1-.2-2.5-.266-4.159s-.1-3.427-.1-5.291c0-1.2.033-2.529.1-4.093q.1-2.3.3-4.292a4.393,4.393,0,0,1,.865-2.629,2.847,2.847,0,0,1,2.1-.7,8.331,8.331,0,0,1,1.165.133,4.028,4.028,0,0,1,1.032.366Z" transform="translate(-217.791 -20.418)" fill="#fff"/>
      <g id="Group_1" data-name="Group 1" transform="translate(74.203 10.781)">
        <path id="Path_10" data-name="Path 10" d="M263.988,63.564a6.683,6.683,0,0,0-4.659,11.48l-.033-.033-1.73,1.9a8.893,8.893,0,0,0,2.03,1.5l1.264-2.229h0a6.556,6.556,0,0,0,3.095.765,6.685,6.685,0,0,0,4.825-11.28l1.764-1.9a10.1,10.1,0,0,0-2-1.564l-1.231,2.263A6.731,6.731,0,0,0,263.988,63.564Z" transform="translate(-245.887 -52.284)" fill="none"/>
        <path id="Path_11" data-name="Path 11" d="M247.964,113.6l-1.764,1.93a14.509,14.509,0,0,0,3.161,2.3l1.3-2.3A11.331,11.331,0,0,1,247.964,113.6Z" transform="translate(-238.48 -86.581)" fill="none"/>
        <path id="Path_12" data-name="Path 12" d="M298.4,51.026l1.764-1.93a16.035,16.035,0,0,0-3.194-2.4L295.7,49A13.625,13.625,0,0,1,298.4,51.026Z" transform="translate(-271.509 -41.942)" fill="none"/>
        <path id="Path_13" data-name="Path 13" d="M293.6,58.46l1.764-1.9a11.586,11.586,0,0,0-2.6-1.963L291.5,56.863A8.326,8.326,0,0,1,293.6,58.46Z" transform="translate(-268.707 -47.213)" fill="none"/>
        <path id="Path_14" data-name="Path 14" d="M253.964,107.1,252.2,109a12.4,12.4,0,0,0,2.6,1.9l1.264-2.263A8.708,8.708,0,0,1,253.964,107.1Z" transform="translate(-242.484 -82.244)" fill="none"/>
        <path id="Path_15" data-name="Path 15" d="M249.6,67.85a9.271,9.271,0,0,0,2.828,6.655l1.73-1.9.033.033a6.549,6.549,0,0,1-2.03-4.792,6.689,6.689,0,0,1,6.688-6.688,6.545,6.545,0,0,1,3.327.9l1.231-2.263A9.255,9.255,0,0,0,249.6,67.85Z" transform="translate(-240.749 -49.882)" fill="#fff"/>
        <path id="Path_16" data-name="Path 16" d="M275.314,73.389a6.682,6.682,0,0,1-6.655,6.688,6.46,6.46,0,0,1-3.095-.765h0L264.3,81.541A9.245,9.245,0,0,0,275.247,66.9l-1.764,1.9A6.636,6.636,0,0,1,275.314,73.389Z" transform="translate(-250.557 -55.42)" fill="#fff"/>
        <path id="Path_17" data-name="Path 17" d="M240.8,62.111a12.185,12.185,0,0,0,3.793,8.818l1.764-1.9a9.47,9.47,0,0,1-2.961-6.888,9.586,9.586,0,0,1,9.583-9.583,9.458,9.458,0,0,1,4.725,1.264l1.264-2.263A12.194,12.194,0,0,0,240.8,62.111Z" transform="translate(-234.877 -44.142)" fill="#fff"/>
        <path id="Path_18" data-name="Path 18" d="M275.273,69.118a9.59,9.59,0,0,1-14.109,8.452L259.9,79.833A12.169,12.169,0,0,0,274.275,60.5l-1.764,1.9A9.426,9.426,0,0,1,275.273,69.118Z" transform="translate(-247.622 -51.15)" fill="#fff"/>
        <path id="Path_19" data-name="Path 19" d="M275.265,64.915a12.54,12.54,0,0,1-12.511,12.511,12.358,12.358,0,0,1-5.956-1.5l-1.3,2.3a15.1,15.1,0,0,0,22.361-13.243A15.023,15.023,0,0,0,273.335,54.2l-1.764,1.93A12.041,12.041,0,0,1,275.265,64.915Z" transform="translate(-244.686 -46.946)" fill="#fff"/>
        <path id="Path_20" data-name="Path 20" d="M231.9,56.107a15.144,15.144,0,0,0,4.725,10.981l1.764-1.93A12.5,12.5,0,0,1,247.007,43.6a12.28,12.28,0,0,1,6.123,1.63l1.264-2.3A15.106,15.106,0,0,0,231.9,56.107Z" transform="translate(-228.939 -38.138)" fill="#fff"/>
        <path id="Path_21" data-name="Path 21" d="M272.6,47.6l-1.73,1.863A15.415,15.415,0,0,1,252.7,74.02l-1.3,2.3A18,18,0,0,0,272.6,47.6Z" transform="translate(-241.95 -42.542)" fill="#fff"/>
        <path id="Path_22" data-name="Path 22" d="M225.629,50.368a15.408,15.408,0,0,1,22.993-13.443l1.231-2.229a17.612,17.612,0,0,0-8.518-2.3h-.3A18.036,18.036,0,0,0,223,50.269h0v.166a17.986,17.986,0,0,0,5.69,13.11l1.8-1.93A15.477,15.477,0,0,1,225.629,50.368Z" transform="translate(-223 -32.4)" fill="#fff"/>
      </g>
      <path id="Path_23" data-name="Path 23" d="M441.7,19.331a2.665,2.665,0,0,1,.5-.7,2.747,2.747,0,0,1,.732-.466,2.333,2.333,0,0,1,1.73,0,2.115,2.115,0,0,1,.732.466,2.665,2.665,0,0,1,.5.7,2.274,2.274,0,0,1,0,1.863,2.665,2.665,0,0,1-.5.7,2.034,2.034,0,0,1-.732.433,2.333,2.333,0,0,1-1.73,0,2.66,2.66,0,0,1-.732-.433,2.21,2.21,0,0,1-.5-.7,2.126,2.126,0,0,1-.2-.932A3.52,3.52,0,0,1,441.7,19.331Zm.566,1.63a2.06,2.06,0,0,0,.366.566,1.9,1.9,0,0,0,.532.366,1.73,1.73,0,0,0,1.331,0,1.521,1.521,0,0,0,.532-.366,1.661,1.661,0,0,0,.366-.566,1.9,1.9,0,0,0,0-1.4,2.06,2.06,0,0,0-.366-.566,1.9,1.9,0,0,0-.532-.366,1.73,1.73,0,0,0-1.331,0,1.521,1.521,0,0,0-.532.366,1.661,1.661,0,0,0-.366.566,1.544,1.544,0,0,0-.133.7A1.637,1.637,0,0,0,442.265,20.961Zm1.6-1.963a1.488,1.488,0,0,1,.732.166.625.625,0,0,1,.266.566.971.971,0,0,1-.067.3.612.612,0,0,1-.333.333c-.067.033-.166.033-.266.067l.665,1.1h-.532l-.6-1.065h-.3v1.065h-.5V19Zm0,1.032a1.2,1.2,0,0,0,.366-.067c.1-.033.133-.133.133-.3a.249.249,0,0,0-.033-.166.459.459,0,0,0-.133-.1.249.249,0,0,0-.166-.033h-.6v.665Z" transform="translate(-294.591 -12.011)" fill="#fff"/>
    </g>
    <text id="Profile" transform="matrix(0.995, -0.105, 0.105, 0.995, 3118.074, 375.26)" fill="#acbcf2" font-size="44" font-family="HelveticaNeue-CondensedBlack, Helvetica Neue" font-weight="800"><tspan x="0" y="43">Profile</tspan></text>
  </g>
</svg>
