<svg xmlns="http://www.w3.org/2000/svg" width="122.819" height="138" viewBox="0 0 122.819 138">
  <g id="GraphQL" transform="translate(-25.74 -4.2)">
    <g id="Group_7" data-name="Group 7" transform="translate(31.855 8.704)">
      <g id="Group_6" data-name="Group 6" transform="translate(0 0)">
        <rect id="Rectangle_22" data-name="Rectangle 22" width="5.85" height="112.874" transform="matrix(-0.866, -0.5, 0.5, -0.866, 5.066, 100.674)" fill="#e535ab"/>
      </g>
    </g>
    <g id="Group_9" data-name="Group 9" transform="translate(30.695 98.643)">
      <g id="Group_8" data-name="Group 8">
        <rect id="Rectangle_23" data-name="Rectangle 23" width="112.874" height="5.85" fill="#e535ab"/>
      </g>
    </g>
    <g id="Group_11" data-name="Group 11" transform="translate(32.928 96.864)">
      <g id="Group_10" data-name="Group 10" transform="translate(0 0)">
        <rect id="Rectangle_24" data-name="Rectangle 24" width="65.194" height="5.85" transform="matrix(-0.866, -0.5, 0.5, -0.866, 56.458, 37.663)" fill="#e535ab"/>
      </g>
    </g>
    <g id="Group_13" data-name="Group 13" transform="translate(81.973 11.907)">
      <g id="Group_12" data-name="Group 12" transform="translate(0 0)">
        <rect id="Rectangle_25" data-name="Rectangle 25" width="65.194" height="5.85" transform="matrix(-0.866, -0.5, 0.5, -0.866, 56.458, 37.663)" fill="#e535ab"/>
      </g>
    </g>
    <g id="Group_15" data-name="Group 15" transform="translate(32.944 11.885)">
      <g id="Group_14" data-name="Group 14" transform="translate(0 0)">
        <rect id="Rectangle_26" data-name="Rectangle 26" width="5.85" height="65.194" transform="matrix(-0.5, -0.866, 0.866, -0.5, 2.925, 37.663)" fill="#e535ab"/>
      </g>
    </g>
    <g id="Group_17" data-name="Group 17" transform="translate(80.953 8.705)">
      <g id="Group_16" data-name="Group 16" transform="translate(0 0)">
        <rect id="Rectangle_27" data-name="Rectangle 27" width="112.874" height="5.85" transform="matrix(-0.5, -0.866, 0.866, -0.5, 56.437, 100.674)" fill="#e535ab"/>
      </g>
    </g>
    <g id="Group_19" data-name="Group 19" transform="translate(35.17 40.603)">
      <g id="Group_18" data-name="Group 18" transform="translate(0)">
        <rect id="Rectangle_28" data-name="Rectangle 28" width="5.85" height="65.194" fill="#e535ab"/>
      </g>
    </g>
    <g id="Group_21" data-name="Group 21" transform="translate(133.278 40.603)">
      <g id="Group_20" data-name="Group 20">
        <rect id="Rectangle_29" data-name="Rectangle 29" width="5.85" height="65.194" fill="#e535ab"/>
      </g>
    </g>
    <g id="Group_23" data-name="Group 23" transform="translate(85.835 99.275)">
      <g id="Group_22" data-name="Group 22" transform="translate(0 0)">
        <rect id="Rectangle_30" data-name="Rectangle 30" width="5.11" height="56.701" transform="matrix(-0.5, -0.866, 0.866, -0.5, 2.555, 32.776)" fill="#e535ab"/>
      </g>
    </g>
    <path id="Path_27" data-name="Path 27" d="M327.3,263.992a12.307,12.307,0,1,1-4.511-16.809,12.318,12.318,0,0,1,4.511,16.809" transform="translate(-180.421 -156.292)" fill="#e535ab"/>
    <path id="Path_28" data-name="Path 28" d="M48.7,103.092a12.307,12.307,0,1,1-4.511-16.81,12.318,12.318,0,0,1,4.511,16.81" transform="translate(0 -52.093)" fill="#e535ab"/>
    <path id="Path_29" data-name="Path 29" d="M27.482,263.992A12.307,12.307,0,1,1,44.292,268.5a12.326,12.326,0,0,1-16.809-4.511" transform="translate(-0.065 -156.292)" fill="#e535ab"/>
    <path id="Path_30" data-name="Path 30" d="M306.082,103.092a12.307,12.307,0,1,1,16.809,4.511,12.326,12.326,0,0,1-16.809-4.511" transform="translate(-180.486 -52.093)" fill="#e535ab"/>
    <path id="Path_31" data-name="Path 31" d="M177.4,350.6a12.3,12.3,0,1,1,12.3-12.3,12.287,12.287,0,0,1-12.3,12.3" transform="translate(-90.25 -208.398)" fill="#e535ab"/>
    <path id="Path_32" data-name="Path 32" d="M177.4,28.8a12.3,12.3,0,1,1,12.3-12.3,12.287,12.287,0,0,1-12.3,12.3" transform="translate(-90.25)" fill="#e535ab"/>
  </g>
</svg>
