<svg xmlns="http://www.w3.org/2000/svg" width="154.961" height="138" viewBox="0 0 154.961 138">
  <g id="React-icon" transform="translate(-175.7 -78)">
    <path id="Path_34" data-name="Path 34" d="M330.662,147.016c0-10.266-12.856-19.994-32.565-26.027,4.548-20.089,2.527-36.071-6.38-41.188a13.848,13.848,0,0,0-7.075-1.769v7.044a7.314,7.314,0,0,1,3.6.821c4.3,2.464,6.159,11.845,4.706,23.911-.347,2.969-.916,6.1-1.611,9.286a153.073,153.073,0,0,0-20.057-3.443,154.09,154.09,0,0,0-13.14-15.793c10.3-9.571,19.962-14.814,26.532-14.814V78h0c-8.686,0-20.057,6.191-31.555,16.93-11.5-10.676-22.868-16.8-31.555-16.8V85.17c6.538,0,16.235,5.212,26.532,14.719a149.182,149.182,0,0,0-13.045,15.762,147.5,147.5,0,0,0-20.089,3.474c-.726-3.159-1.263-6.222-1.642-9.16-1.485-12.066.347-21.447,4.612-23.942a7.03,7.03,0,0,1,3.632-.821V78.158h0a14.084,14.084,0,0,0-7.138,1.769c-8.876,5.117-10.866,21.068-6.286,41.094-19.647,6.065-32.439,15.761-32.439,26,0,10.265,12.856,19.994,32.565,26.027-4.548,20.089-2.527,36.071,6.38,41.188A13.885,13.885,0,0,0,221.753,216c8.686,0,20.057-6.191,31.555-16.93,11.5,10.676,22.868,16.8,31.555,16.8A14.083,14.083,0,0,0,292,214.1c8.876-5.117,10.866-21.068,6.286-41.094C317.869,166.978,330.662,157.25,330.662,147.016Zm-41.125-21.068c-1.169,4.075-2.622,8.276-4.264,12.476-1.3-2.527-2.653-5.054-4.138-7.581-1.453-2.527-3-4.991-4.548-7.391C281.072,124.116,285.4,124.937,289.537,125.948ZM275.07,159.587c-2.464,4.264-4.991,8.307-7.612,12.066-4.706.411-9.476.632-14.277.632-4.77,0-9.539-.221-14.214-.6q-3.932-5.638-7.644-12-3.6-6.207-6.57-12.571c1.958-4.233,4.169-8.465,6.538-12.6,2.464-4.264,4.991-8.307,7.612-12.066,4.706-.411,9.476-.632,14.277-.632,4.769,0,9.539.221,14.214.6q3.932,5.638,7.644,12,3.6,6.207,6.57,12.571C279.619,151.217,277.439,155.449,275.07,159.587Zm10.2-4.106c1.706,4.233,3.159,8.465,4.359,12.571-4.138,1.011-8.5,1.864-13.013,2.527,1.548-2.432,3.1-4.927,4.548-7.486C282.619,160.566,283.977,158.008,285.272,155.481Zm-32.028,33.7a130.231,130.231,0,0,1-8.781-10.108c2.843.126,5.749.221,8.686.221,2.969,0,5.907-.063,8.781-.221A123.282,123.282,0,0,1,253.244,189.183Zm-23.5-18.6c-4.485-.663-8.813-1.485-12.95-2.5,1.169-4.075,2.622-8.276,4.264-12.477,1.3,2.527,2.653,5.054,4.138,7.581S228.2,168.178,229.744,170.579Zm23.342-65.731a130.216,130.216,0,0,1,8.781,10.108c-2.843-.126-5.749-.221-8.686-.221-2.969,0-5.907.063-8.781.221A123.293,123.293,0,0,1,253.086,104.848Zm-23.374,18.6c-1.548,2.432-3.1,4.927-4.548,7.486-1.453,2.527-2.811,5.054-4.106,7.581-1.706-4.233-3.159-8.465-4.359-12.571C220.837,124.969,225.2,124.116,229.712,123.453ZM201.127,163c-11.182-4.77-18.415-11.024-18.415-15.983s7.233-11.245,18.415-15.983c2.716-1.169,5.685-2.211,8.749-3.19a151.705,151.705,0,0,0,7.107,19.236,149.563,149.563,0,0,0-7.012,19.141C206.844,165.241,203.875,164.167,201.127,163Zm16.993,45.137c-4.3-2.464-6.159-11.845-4.706-23.911.347-2.969.916-6.1,1.611-9.286a153.07,153.07,0,0,0,20.057,3.443,154.07,154.07,0,0,0,13.14,15.793c-10.3,9.571-19.962,14.814-26.532,14.814A7.538,7.538,0,0,1,218.12,208.135Zm74.922-24.069c1.485,12.066-.347,21.447-4.612,23.942a7.03,7.03,0,0,1-3.632.821c-6.538,0-16.235-5.212-26.532-14.719a149.19,149.19,0,0,0,13.045-15.762,147.5,147.5,0,0,0,20.089-3.474A88.419,88.419,0,0,1,293.043,184.066ZM305.2,163c-2.716,1.169-5.686,2.211-8.749,3.19a151.7,151.7,0,0,0-7.107-19.236,149.574,149.574,0,0,0,7.012-19.141c3.127.979,6.1,2.053,8.876,3.222,11.181,4.77,18.415,11.024,18.415,15.983C323.618,151.975,316.385,158.26,305.2,163Z" transform="translate(0)" fill="#61dafb"/>
    <path id="Path_35" data-name="Path 35" d="M320.8,78.4Z" transform="translate(-99.268 -0.274)" fill="#61dafb"/>
    <circle id="Ellipse_7" data-name="Ellipse 7" cx="14.435" cy="14.435" r="14.435" transform="translate(238.714 132.581)" fill="#61dafb"/>
    <path id="Path_36" data-name="Path 36" d="M520.5,78.1Z" transform="translate(-235.891 -0.068)" fill="#61dafb"/>
  </g>
</svg>
